<svg xmlns="http://www.w3.org/2000/svg" viewBox="0 0 512 512"><path d="M128 0c-17.6 0-32 14.4-32 32v448c0 17.6 14.4 32 32 32h320c17.6 0 32-14.4 32-32V128L352 0H128z" fill="#e2e5e7"/><path d="M384 128h96L352 0v96c0 17.6 14.4 32 32 32z" fill="#b0b7bd"/><path fill="#cad1d8" d="M480 224l-96-96h96z"/><path d="M416 416c0 8.8-7.2 16-16 16H48c-8.8 0-16-7.2-16-16V256c0-8.8 7.2-16 16-16h352c8.8 0 16 7.2 16 16v160z" fill="#84bd5a"/><g fill="#fff"><path d="M133.872 311.472H112c-10.752 0-10.112-16 0-16h39.136c7.808 0 11.392 8.976 5.632 14.72l-21.232 19.84c15.616-1.152 27.888 10.464 27.888 24.816 0 15.728-11.12 29.152-34.528 29.152-10.24 0-20.336-4.224-26.24-13.424-6.144-9.072 7.024-17.792 13.936-8.832 3.344 4.336 8.72 6.528 14.464 6.528 7.792 0 15.472-3.344 15.472-13.44 0-13.312-16.24-11.248-25.056-10.368-10.752 2.064-13.952-9.6-7.68-14.432l20.08-18.56zM190.032 384c-4.224 0-8.832-2.304-8.832-7.92v-72.672c0-4.592 4.608-7.936 8.832-7.936h29.296c58.464 0 57.184 88.528 1.152 88.528h-30.448zm8.064-72.912V368.4h21.232c34.544 0 36.08-57.312 0-57.312h-21.232z"/><path d="M277.872 314.672c2.944-24.832 40.416-29.296 58.08-15.728 8.704 7.024-.512 18.16-8.192 12.528-9.472-6-30.96-8.816-33.648 4.464-3.456 20.992 52.192 8.976 51.296 43.008-.896 32.496-47.968 33.248-65.632 18.672-4.24-3.456-4.096-9.072-1.792-12.544 3.328-3.312 7.024-4.464 11.392-.88 10.48 7.152 37.488 12.528 39.392-5.648-1.648-18.912-54.864-7.536-50.896-43.872z"/></g><path d="M400 432H96v16h304c8.8 0 16-7.2 16-16v-16c0 8.8-7.2 16-16 16z" fill="#cad1d8"/></svg>