<svg xmlns="http://www.w3.org/2000/svg" viewBox="0 0 512 512"><path d="M128 0c-17.6 0-32 14.4-32 32v448c0 17.6 14.4 32 32 32h320c17.6 0 32-14.4 32-32V128L352 0H128z" fill="#e2e5e7"/><path d="M384 128h96L352 0v96c0 17.6 14.4 32 32 32z" fill="#b0b7bd"/><path fill="#cad1d8" d="M480 224l-96-96h96z"/><path d="M416 416c0 8.8-7.2 16-16 16H48c-8.8 0-16-7.2-16-16V256c0-8.8 7.2-16 16-16h352c8.8 0 16 7.2 16 16v160z" fill="#f15642"/><path d="M88.368 384c-4.096-2.304-6.656-6.912-4.096-12.288l36.72-71.744c3.456-6.784 12.656-7.04 15.856 0l36.08 71.744c5.248 9.984-10.24 17.904-14.848 7.936l-5.632-11.248h-47.2l-5.52 11.248c-2.016 4.352-6.736 5.264-11.36 4.352zm55.024-32.48l-14.464-31.616-15.744 31.616h30.208zM189.184 384c-4.096-2.304-6.656-6.912-4.096-12.288l36.704-71.744c3.456-6.784 12.672-7.04 15.872 0l36.064 71.744c5.248 9.984-10.24 17.904-14.832 7.936l-5.648-11.248h-47.2l-5.504 11.248c-2.032 4.352-6.768 5.264-11.36 4.352zm55.008-32.48l-14.448-31.616-15.728 31.616h30.176zm38.224-12.432c0-24.688 15.488-45.904 44.912-45.904 11.136 0 19.952 3.312 29.296 11.376 3.456 3.184 3.84 8.832.384 12.4-3.456 3.056-8.704 2.688-11.76-.368-5.248-5.504-10.624-7.024-17.92-7.024-19.696 0-29.168 13.936-29.168 29.536 0 15.872 9.344 30.464 29.168 30.464 7.296 0 14.08-2.96 19.952-8.192 3.968-3.072 9.472-1.552 11.776 1.536 2.048 2.816 3.056 7.536-1.408 12.016-8.96 8.336-19.696 9.984-30.336 9.984-30.944 0-44.896-21.12-44.896-45.824z" fill="#fff"/><path d="M400 432H96v16h304c8.8 0 16-7.2 16-16v-16c0 8.8-7.2 16-16 16z" fill="#cad1d8"/></svg>