<svg xmlns="http://www.w3.org/2000/svg" viewBox="0 0 512 512"><path d="M128 0c-17.6 0-32 14.4-32 32v448c0 17.6 14.4 32 32 32h320c17.6 0 32-14.4 32-32V128L352 0H128z" fill="#e2e5e7"/><path d="M384 128h96L352 0v96c0 17.6 14.4 32 32 32z" fill="#b0b7bd"/><path fill="#cad1d8" d="M480 224l-96-96h96z"/><path d="M416 416c0 8.8-7.2 16-16 16H48c-8.8 0-16-7.2-16-16V256c0-8.8 7.2-16 16-16h352c8.8 0 16 7.2 16 16v160z" fill="#84bd5a"/><path d="M99.968 384c-4.608 0-7.808-3.456-7.808-7.936v-72.656c0-4.608 3.2-7.936 7.808-7.936h35.952c16.768 0 25.84 11.392 25.84 24.432 0 5.744-1.664 11.392-7.024 16.128 10.096 3.968 14.576 11.76 14.576 21.232-.016 14.704-10 26.736-29.184 26.736h-40.16zm35.936-72.928h-26.992v19.056h26.992c5.504 0 8.96-3.456 8.96-10.24 0-4.208-3.456-8.816-8.96-8.816zm-26.992 57.312h31.216c14.848 0 14.848-22.64 0-22.64h-31.216v22.64zm92.544-40.544v47.328c0 5.648-4.608 8.832-9.2 8.832-4.096 0-7.68-3.184-7.68-8.832v-72.016c0-6.656 5.648-8.848 7.68-8.848 3.696 0 5.872 2.192 8.048 4.624l28.16 37.984 29.152-39.408c4.24-5.232 14.592-3.2 14.592 5.648v72.016c0 5.648-3.584 8.832-7.664 8.832-4.608 0-8.192-3.184-8.192-8.832V327.84l-21.248 26.864c-4.592 5.648-10.352 5.648-14.576 0l-19.072-26.864zm88.72-24.688c0-4.224 3.328-8.848 8.704-8.848h29.552c16.64 0 31.616 11.136 31.616 32.496 0 20.224-14.976 31.472-31.616 31.472h-21.36v16.896c0 5.648-3.584 8.832-8.192 8.832-4.224 0-8.704-3.184-8.704-8.832v-72.016zm16.88 7.28v31.856h21.36c8.576 0 15.36-7.552 15.36-15.488 0-8.96-6.784-16.368-15.36-16.368h-21.36z" fill="#fff"/><path d="M400 432H96v16h304c8.8 0 16-7.2 16-16v-16c0 8.8-7.2 16-16 16z" fill="#cad1d8"/></svg>