<svg xmlns="http://www.w3.org/2000/svg" viewBox="0 0 512 512"><path d="M128 0c-17.6 0-32 14.4-32 32v448c0 17.6 14.4 32 32 32h320c17.6 0 32-14.4 32-32V128L352 0H128z" fill="#e2e5e7"/><path d="M384 128h96L352 0v96c0 17.6 14.4 32 32 32z" fill="#b0b7bd"/><path fill="#cad1d8" d="M480 224l-96-96h96z"/><path d="M416 416c0 8.8-7.2 16-16 16H48c-8.8 0-16-7.2-16-16V256c0-8.8 7.2-16 16-16h352c8.8 0 16 7.2 16 16v160z" fill="#576d7e"/><path d="M103.936 339.088c0-24.688 15.472-45.92 44.912-45.92 11.12 0 19.952 3.328 29.296 11.392 3.456 3.184 3.824 8.816.368 12.4-3.456 3.056-8.704 2.688-11.76-.384-5.248-5.504-10.624-7.024-17.904-7.024-19.696 0-29.168 13.952-29.168 29.552 0 15.872 9.344 30.448 29.168 30.448 7.28 0 14.064-2.96 19.952-8.192 3.968-3.072 9.472-1.552 11.76 1.536 2.048 2.816 3.072 7.552-1.408 12.016-8.96 8.336-19.696 10-30.32 10-30.944 0-44.896-21.136-44.896-45.824zm91.776-24.432c2.944-24.816 40.416-29.28 58.08-15.712 8.704 7.024-.512 18.16-8.192 12.528-9.472-6.016-30.96-8.832-33.648 4.464-3.456 20.992 52.192 8.976 51.296 42.992-.896 32.496-47.968 33.264-65.632 18.672-4.24-3.44-4.096-9.056-1.792-12.528 3.328-3.312 7.024-4.464 11.392-.896 10.48 7.168 37.488 12.544 39.392-5.648-1.632-18.912-54.864-7.52-50.896-43.872zm80.768 0c2.944-24.816 40.416-29.28 58.08-15.712 8.704 7.024-.512 18.16-8.192 12.528-9.472-6.016-30.96-8.832-33.648 4.464-3.456 20.992 52.192 8.976 51.296 42.992-.896 32.496-47.968 33.264-65.632 18.672-4.224-3.44-4.096-9.056-1.792-12.528 3.328-3.312 7.024-4.464 11.392-.896 10.48 7.168 37.488 12.544 39.408-5.648-1.664-18.912-54.88-7.52-50.912-43.872z" fill="#fff"/><path d="M400 432H96v16h304c8.8 0 16-7.2 16-16v-16c0 8.8-7.2 16-16 16z" fill="#cad1d8"/></svg>