<svg xmlns="http://www.w3.org/2000/svg" viewBox="0 0 512 512"><path d="M128 0c-17.6 0-32 14.4-32 32v448c0 17.6 14.4 32 32 32h320c17.6 0 32-14.4 32-32V128L352 0H128z" fill="#e2e5e7"/><path d="M384 128h96L352 0v96c0 17.6 14.4 32 32 32z" fill="#b0b7bd"/><path fill="#cad1d8" d="M480 224l-96-96h96z"/><path d="M416 416c0 8.8-7.2 16-16 16H48c-8.8 0-16-7.2-16-16V256c0-8.8 7.2-16 16-16h352c8.8 0 16 7.2 16 16v160z" fill="#84bd5a"/><path d="M110.272 384c-4.224 0-8.832-2.304-8.832-7.92v-72.672c0-4.608 4.608-7.936 8.832-7.936h29.296c58.464 0 57.184 88.528 1.152 88.528h-30.448zm8.064-72.928v57.312h21.232c34.544 0 36.08-57.312 0-57.312h-21.232zM196.288 384c-4.096-2.304-6.64-6.912-4.096-12.288l36.72-71.76c3.456-6.784 12.672-7.024 15.872 0l36.064 71.76c5.248 9.984-10.24 17.904-14.832 7.936l-5.648-11.264h-47.2l-5.504 11.264c-2.032 4.352-6.768 5.264-11.376 4.352zm55.008-32.48l-14.448-31.616-15.728 31.616h30.176zm54.288-40.048H283.2c-11.136 0-11.136-16.368 0-16.368h60.496c11.392 0 11.392 16.368 0 16.368h-21.232v64.608c0 11.12-16.896 11.376-16.896 0v-64.608h.016z" fill="#fff"/><path d="M400 432H96v16h304c8.8 0 16-7.2 16-16v-16c0 8.8-7.2 16-16 16z" fill="#cad1d8"/></svg>