<svg xmlns="http://www.w3.org/2000/svg" viewBox="0 0 512 512"><path d="M128 0c-17.6 0-32 14.4-32 32v448c0 17.616 14.4 32 32 32h320c17.6 0 32-14.384 32-32V128L352 0H128z" fill="#e2e5e7"/><path d="M384 128h96L352 0v96c0 17.6 14.4 32 32 32z" fill="#b0b7bd"/><path fill="#cad1d8" d="M480 224l-96-96h96z"/><path d="M416 416c0 8.8-7.2 16-16 16H48c-8.8 0-16-7.2-16-16V256c0-8.8 7.2-16 16-16h352c8.8 0 16 7.2 16 16v160z" fill="#a066aa"/><path d="M66.4 303.152c0-10.496 16.88-10.88 16.88 0v73.04c0 10.608-16.88 10.88-16.88 0v-73.04zm39.568 1.28c0-4.608 1.024-9.088 7.664-9.088 4.608 0 5.632 1.152 9.088 4.48l42.336 52.96v-49.632c0-4.224 3.696-8.832 8.064-8.832 4.592 0 9.072 4.608 9.072 8.832v72.016c0 5.648-3.456 7.808-6.784 8.832-4.464 0-6.656-1.008-10.352-4.464l-42.336-53.744v49.376c0 5.648-3.456 8.832-8.064 8.832s-8.688-3.184-8.688-8.832v-70.736zM213.248 384c-4.224 0-8.832-2.304-8.832-7.92v-72.672c0-4.608 4.608-7.936 8.832-7.936h29.296c58.464 0 57.184 88.528 1.152 88.528h-30.448zm8.064-72.928v57.312h21.232c34.544 0 36.08-57.312 0-57.312h-21.232zM312.592 384c-4.224 0-8.832-2.304-8.832-7.92v-72.672c0-4.608 4.608-7.936 8.832-7.936h29.296c58.464 0 57.184 88.528 1.152 88.528h-30.448zm8.064-72.928v57.312h21.232c34.544 0 36.08-57.312 0-57.312h-21.232z" fill="#fff"/><path d="M400 432H96v16h304c8.8 0 16-7.2 16-16v-16c0 8.8-7.2 16-16 16z" fill="#cad1d8"/></svg>