<svg xmlns="http://www.w3.org/2000/svg" viewBox="0 0 512 512"><path d="M128 0c-17.6 0-32 14.4-32 32v448c0 17.6 14.4 32 32 32h320c17.6 0 32-14.4 32-32V128L352 0H128z" fill="#e2e5e7"/><path d="M384 128h96L352 0v96c0 17.6 14.4 32 32 32z" fill="#b0b7bd"/><path fill="#cad1d8" d="M480 224l-96-96h96z"/><path d="M416 416c0 8.8-7.2 16-16 16H48c-8.8 0-16-7.2-16-16V256c0-8.8 7.2-16 16-16h352c8.8 0 16 7.2 16 16v160z" fill="#50bee8"/><path d="M119.52 303.152c0-10.496 16.896-10.88 16.896 0v73.024c0 10.624-16.896 10.88-16.896 0v-73.024zm37.104 11.504c2.944-24.816 40.416-29.28 58.08-15.712 8.704 7.024-.512 18.16-8.192 12.528-9.472-6.016-30.96-8.832-33.648 4.464-3.456 20.992 52.192 8.976 51.296 42.992-.896 32.496-47.968 33.264-65.632 18.672-4.24-3.44-4.096-9.056-1.792-12.528 3.328-3.312 7.024-4.464 11.392-.896 10.48 7.168 37.488 12.544 39.392-5.648-1.648-18.912-54.864-7.52-50.896-43.872zm129.2 70.624c-23.664 1.024-48.24-14.72-48.24-46.064 0-31.472 24.56-46.944 48.24-46.944 22.384 1.136 45.792 16.624 45.792 46.944.016 30.336-23.392 46.064-45.792 46.064zm-1.408-76.368c-14.336 0-29.936 10.112-29.936 30.32 0 20.096 15.616 30.336 29.936 30.336 14.72 0 30.448-10.24 30.448-30.336.016-20.224-15.728-30.32-30.448-30.32z" fill="#fff"/><path d="M400 432H96v16h304c8.8 0 16-7.2 16-16v-16c0 8.8-7.2 16-16 16z" fill="#cad1d8"/></svg>