<svg xmlns="http://www.w3.org/2000/svg" viewBox="0 0 512 512"><path d="M128 0c-17.6 0-32 14.4-32 32v448c0 17.6 14.4 32 32 32h320c17.6 0 32-14.4 32-32V128L352 0H128z" fill="#e2e5e7"/><path d="M384 128h96L352 0v96c0 17.6 14.4 32 32 32z" fill="#b0b7bd"/><path fill="#cad1d8" d="M480 224l-96-96h96z"/><path d="M416 416c0 8.8-7.2 16-16 16H48c-8.8 0-16-7.2-16-16V256c0-8.8 7.2-16 16-16h352c8.8 0 16 7.2 16 16v160z" fill="#576d7e"/><path d="M193.744 303.152c0-10.752 16.896-10.752 16.896 0v50.528c0 20.08-9.6 32.24-31.712 32.24-10.88 0-19.968-2.96-27.888-13.168-6.528-7.808 5.744-19.056 12.4-10.88 5.376 6.656 11.12 8.192 16.752 7.92 7.168-.256 13.44-3.456 13.568-16.112v-50.528h-.016zm36.528 11.504c2.944-24.816 40.416-29.28 58.08-15.712 8.704 7.024-.512 18.16-8.192 12.528-9.472-6.016-30.96-8.832-33.648 4.464-3.456 20.992 52.192 8.976 51.296 42.992-.896 32.496-47.968 33.264-65.632 18.672-4.224-3.44-4.096-9.056-1.792-12.528 3.328-3.312 7.024-4.464 11.392-.896 10.48 7.168 37.488 12.544 39.408-5.648-1.664-18.912-54.88-7.52-50.912-43.872z" fill="#fff"/><path d="M400 432H96v16h304c8.8 0 16-7.2 16-16v-16c0 8.8-7.2 16-16 16z" fill="#cad1d8"/></svg>