<svg xmlns="http://www.w3.org/2000/svg" viewBox="0 0 512 512"><path d="M128 0c-17.6 0-32 14.4-32 32v448c0 17.6 14.4 32 32 32h320c17.6 0 32-14.4 32-32V128L352 0H128z" fill="#e2e5e7"/><path d="M384 128h96L352 0v96c0 17.6 14.4 32 32 32z" fill="#b0b7bd"/><path fill="#cad1d8" d="M480 224l-96-96h96z"/><path d="M416 416c0 8.8-7.2 16-16 16H48c-8.8 0-16-7.2-16-16V256c0-8.8 7.2-16 16-16h352c8.8 0 16 7.2 16 16v160z" fill="#50bee8"/><path d="M96.928 327.84v47.328c0 5.648-4.608 8.832-9.216 8.832-4.096 0-7.68-3.184-7.68-8.832v-72.016c0-6.656 5.632-8.848 7.68-8.848 3.696 0 5.872 2.192 8.064 4.624l28.128 37.984 29.168-39.408c4.24-5.232 14.592-3.2 14.592 5.648v72.016c0 5.648-3.568 8.832-7.664 8.832-4.608 0-8.192-3.184-8.192-8.832V327.84l-21.248 26.864c-4.592 5.648-10.352 5.648-14.576 0L96.928 327.84zm137.168 57.44c-23.664 1.024-48.24-14.72-48.24-46.064 0-31.472 24.56-46.944 48.24-46.944 22.384 1.136 45.792 16.624 45.792 46.944 0 30.336-23.408 46.064-45.792 46.064zm-1.408-76.368c-14.336 0-29.936 10.112-29.936 30.32 0 20.096 15.616 30.336 29.936 30.336 14.72 0 30.448-10.24 30.448-30.336 0-20.224-15.728-30.32-30.448-30.32zm90.976 69.344l-33.776-70.752c-4.992-10.112 10.112-18.416 15.728-7.808l11.392 25.712 14.704 33.776 14.448-33.776 11.392-25.712c5.12-9.712 19.952-3.584 15.616 7.04l-32.624 71.52c-2.944 8.064-12.032 9.968-16.88 0z" fill="#fff"/><path d="M400 432H96v16h304c8.8 0 16-7.2 16-16v-16c0 8.8-7.2 16-16 16z" fill="#cad1d8"/></svg>