<svg xmlns="http://www.w3.org/2000/svg" viewBox="0 0 512 512"><path d="M128 0c-17.6 0-32 14.4-32 32v448c0 17.6 14.4 32 32 32h320c17.6 0 32-14.4 32-32V128L352 0H128z" fill="#e2e5e7"/><path d="M384 128h96L352 0v96c0 17.6 14.4 32 32 32z" fill="#b0b7bd"/><path fill="#cad1d8" d="M480 224l-96-96h96z"/><path d="M416 416c0 8.8-7.2 16-16 16H48c-8.8 0-16-7.2-16-16V256c0-8.8 7.2-16 16-16h352c8.8 0 16 7.2 16 16v160z" fill="#576d7e"/><path d="M102.912 303.152c0-4.224 3.328-8.848 8.704-8.848h29.552c16.64 0 31.616 11.136 31.616 32.496 0 20.224-14.976 31.472-31.616 31.472h-21.376v16.896c0 5.648-3.568 8.832-8.176 8.832-4.224 0-8.704-3.184-8.704-8.832v-72.016zm16.88 7.28v31.856h21.36c8.576 0 15.36-7.552 15.36-15.488 0-8.96-6.784-16.368-15.36-16.368h-21.36zm66.688 65.632v-72.656c0-4.608 3.328-7.936 9.088-7.936 4.464 0 7.792 3.328 7.792 7.936v27.888h41.696v-27.888c0-4.608 4.096-7.936 8.704-7.936 4.464 0 7.936 3.328 7.936 7.936v72.656c0 4.48-3.472 7.936-7.936 7.936-4.608 0-8.704-3.456-8.704-7.936v-28H203.36v28c0 4.48-3.328 7.936-7.792 7.936-5.76 0-9.088-3.456-9.088-7.936zm93.184-72.912c0-4.224 3.328-8.848 8.704-8.848h29.552c16.64 0 31.616 11.136 31.616 32.496 0 20.224-14.976 31.472-31.616 31.472h-21.36v16.896c0 5.648-3.584 8.832-8.192 8.832-4.224 0-8.704-3.184-8.704-8.832v-72.016zm16.896 7.28v31.856h21.36c8.576 0 15.36-7.552 15.36-15.488 0-8.96-6.784-16.368-15.36-16.368h-21.36z" fill="#fff"/><path d="M400 432H96v16h304c8.8 0 16-7.2 16-16v-16c0 8.8-7.2 16-16 16z" fill="#cad1d8"/></svg>