<svg xmlns="http://www.w3.org/2000/svg" viewBox="0 0 512 512"><path d="M128 0c-17.6 0-32 14.4-32 32v448c0 17.6 14.4 32 32 32h320c17.6 0 32-14.4 32-32V128L352 0H128z" fill="#e2e5e7"/><path d="M384 128h96L352 0v96c0 17.6 14.4 32 32 32z" fill="#b0b7bd"/><path fill="#cad1d8" d="M480 224l-96-96h96z"/><path d="M416 416c0 8.8-7.2 16-16 16H48c-8.8 0-16-7.2-16-16V256c0-8.8 7.2-16 16-16h352c8.8 0 16 7.2 16 16v160z" fill="#576d7e"/><path d="M94.912 375.68c0 11.12-17.024 11.504-17.024.256V303.28c0-4.48 3.472-7.808 7.68-7.808H119.6c32.48 0 39.136 43.504 12.016 54.368l17.008 20.72c6.656 9.856-6.64 19.312-14.336 9.6l-19.312-27.632H94.912v23.152zm0-37.872H119.6c16.624 0 17.664-26.864 0-26.864H94.912v26.864zM162.624 384c-4.096-2.32-6.656-6.912-4.096-12.288l36.704-71.76c3.456-6.784 12.672-7.04 15.872 0l36.064 71.76c5.248 9.968-10.24 17.904-14.832 7.936l-5.648-11.264h-47.2l-5.504 11.264c-2.032 4.352-6.768 5.264-11.36 4.352zm55.008-32.496l-14.448-31.6-15.728 31.6h30.176zm123.616 1.92l19.056-52.704c3.84-10.352 19.312-5.504 15.488 5.632l-25.328 68.704c-2.32 7.296-4.48 9.472-8.832 9.472-4.608 0-6.016-2.832-8.576-7.424L310.8 326.576l-21.248 49.76c-2.304 5.36-4.464 8.432-9.072 8.432-4.464 0-6.784-3.072-8.832-8.704l-24.816-69.712c-3.84-11.504 12.4-15.728 15.728-5.632l18.944 52.704 22.64-52.704c3.056-7.808 11.12-8.192 14.448-.368l22.656 53.072z" fill="#fff"/><path d="M400 432H96v16h304c8.8 0 16-7.2 16-16v-16c0 8.8-7.2 16-16 16z" fill="#cad1d8"/></svg>