<svg xmlns="http://www.w3.org/2000/svg" viewBox="0 0 512 512"><path d="M128 0c-17.6 0-32 14.4-32 32v448c0 17.6 14.4 32 32 32h320c17.6 0 32-14.4 32-32V128L352 0H128z" fill="#e2e5e7"/><path d="M384 128h96L352 0v96c0 17.6 14.4 32 32 32z" fill="#b0b7bd"/><path fill="#cad1d8" d="M480 224l-96-96h96z"/><path d="M416 416c0 8.8-7.2 16-16 16H48c-8.8 0-16-7.2-16-16V256c0-8.8 7.2-16 16-16h352c8.8 0 16 7.2 16 16v160z" fill="#a066aa"/><path d="M155.824 311.472H133.44c-11.12 0-11.12-16.368 0-16.368h60.512c11.376 0 11.376 16.368 0 16.368H172.72v64.592c0 11.12-16.896 11.392-16.896 0v-64.592zm61.712-8.32c0-10.496 16.896-10.88 16.896 0v73.024c0 10.624-16.896 10.88-16.896 0v-73.024zm56.176 8.944v20.336h32.608c4.608 0 9.216 4.608 9.216 9.088 0 4.224-4.608 7.664-9.216 7.664h-32.608v26.864c0 4.48-3.2 7.936-7.68 7.936-5.632 0-9.072-3.456-9.072-7.936v-72.656c0-4.608 3.456-7.936 9.072-7.936h44.912c5.632 0 8.96 3.328 8.96 7.936 0 4.096-3.328 8.688-8.96 8.688h-37.232v.016z" fill="#fff"/><path d="M400 432H96v16h304c8.8 0 16-7.2 16-16v-16c0 8.8-7.2 16-16 16z" fill="#cad1d8"/></svg>