<svg xmlns="http://www.w3.org/2000/svg" viewBox="0 0 512 512"><path d="M128 0c-17.6 0-32 14.4-32 32v448c0 17.6 14.4 32 32 32h320c17.6 0 32-14.4 32-32V128L352 0H128z" fill="#e2e5e7"/><path d="M384 128h96L352 0v96c0 17.6 14.4 32 32 32z" fill="#b0b7bd"/><path fill="#cad1d8" d="M480 224l-96-96h96z"/><path d="M416 416c0 8.8-7.2 16-16 16H48c-8.8 0-16-7.2-16-16V256c0-8.8 7.2-16 16-16h352c8.8 0 16 7.2 16 16v160z" fill="#84bd5a"/><path d="M153.216 353.44l19.056-52.72c3.824-10.336 19.312-5.504 15.472 5.632l-25.328 68.72c-2.304 7.28-4.464 9.472-8.832 9.472-4.592 0-6.016-2.832-8.56-7.44l-22.256-50.544-21.232 49.776c-2.32 5.36-4.464 8.432-9.088 8.432-4.464 0-6.784-3.072-8.816-8.704l-24.816-69.728c-3.84-11.504 12.4-15.712 15.712-5.632l18.944 52.72 22.656-52.72c3.056-7.792 11.12-8.192 14.432-.368l22.656 53.104zm66.528-25.6v47.344c0 5.632-4.608 8.816-9.2 8.816-4.096 0-7.68-3.184-7.68-8.816v-72.032c0-6.656 5.648-8.832 7.68-8.832 3.696 0 5.872 2.176 8.048 4.608l28.16 38 29.152-39.408c4.24-5.248 14.592-3.2 14.592 5.632v72.032c0 5.632-3.6 8.816-7.68 8.816-4.592 0-8.192-3.184-8.192-8.816V327.84l-21.232 26.88c-4.592 5.632-10.352 5.632-14.576 0l-19.072-26.88zm120.032 50.416L306 307.504c-4.992-10.096 10.112-18.4 15.728-7.792l11.392 25.696 14.704 33.776 14.448-33.776 11.392-25.696c5.12-9.728 19.952-3.584 15.616 7.04l-32.624 71.504c-2.944 8.064-12.016 9.968-16.88 0z" fill="#fff"/><path d="M400 432H96v16h304c8.8 0 16-7.2 16-16v-16c0 8.8-7.2 16-16 16z" fill="#cad1d8"/></svg>